<?xml version="1.0" encoding="UTF-8"?>
<svg id="Layer_1" data-name="Layer 1" xmlns="http://www.w3.org/2000/svg" viewBox="0 0 23.98 23.8">
  <defs>
    <style>
      .cls-1 {
        fill: none;
      }

      .cls-1, .cls-2 {
        stroke: #fff;
        stroke-miterlimit: 10;
        stroke-width: .8px;
      }

      .cls-2 {
        fill: #fff;
      }
    </style>
  </defs>
  <g>
    <path class="cls-1" d="m.4,3.98v15.84c0,1.98,1.6,3.58,3.58,3.58h16.02c1.98,0,3.58-1.6,3.58-3.58V5.43s-.02-1.52-.02-1.52c-.03-1.95-1.63-3.51-3.58-3.51H3.98s0,0,0,0c-1.98,0-3.58,1.6-3.58,3.58Z"/>
    <line class="cls-1" x1="2.79" y1="7.92" x2="21.19" y2="7.92"/>
    <line class="cls-1" x1="2.8" y1="19.83" x2="21.2" y2="19.83"/>
    <line class="cls-1" x1="2.77" y1="11.88" x2="21.17" y2="11.88"/>
    <line class="cls-1" x1="2.83" y1="15.84" x2="21.23" y2="15.84"/>
    <line class="cls-1" x1="2.79" y1="3.99" x2="20.99" y2="3.99"/>
  </g>
  <rect class="cls-2" x="6.88" y="3.35" width="5.39" height="1.26"/>
  <rect class="cls-2" x="6.86" y="19.17" width="5.41" height="1.26"/>
  <rect class="cls-2" x="11.41" y="11.27" width="5.41" height="1.26"/>
</svg>