<?xml version="1.0" encoding="UTF-8"?>
<svg id="Layer_1" data-name="Layer 1" xmlns="http://www.w3.org/2000/svg" xmlns:xlink="http://www.w3.org/1999/xlink" viewBox="0 0 124 124">
  <defs>
    <style>
      .cls-1 {
        fill: #333;
        filter: url(#drop-shadow-2);
      }

      .cls-1, .cls-2, .cls-3, .cls-4, .cls-5 {
        stroke-miterlimit: 10;
        stroke-width: 3.65px;
      }

      .cls-1, .cls-3 {
        stroke: #d7dae0;
      }

      .cls-2 {
        fill: #ff46ff;
        stroke: #ff46ff;
      }

      .cls-3 {
        fill: none;
      }

      .cls-4 {
        fill: #00d3ff;
        stroke: #00d3ff;
      }

      .cls-5 {
        fill: #ff0;
        stroke: #ff0;
      }
    </style>
    <filter id="drop-shadow-2" filterUnits="userSpaceOnUse">
      <feOffset dx=".41" dy="1.22"/>
      <feGaussianBlur result="blur" stdDeviation="2.84"/>
      <feFlood flood-color="#000" flood-opacity=".45"/>
      <feComposite in2="blur" operator="in"/>
      <feComposite in="SourceGraphic"/>
    </filter>
  </defs>
  <path class="cls-1" d="m9.09,25.85v72.32c0,9.02,7.31,16.33,16.33,16.33h73.13c9.02,0,16.33-7.31,16.33-16.33l.02-65.7-.12-6.93c-.16-8.91-7.42-16.04-16.33-16.04h-6.52l-66.51.02h0c-9.02,0-16.33,7.31-16.33,16.33Z"/>
  <line class="cls-3" x1="20.03" y1="43.83" x2="104.01" y2="43.83"/>
  <line class="cls-3" x1="20.07" y1="98.19" x2="104.05" y2="98.19"/>
  <line class="cls-3" x1="19.91" y1="61.91" x2="103.89" y2="61.91"/>
  <line class="cls-3" x1="20.19" y1="80.01" x2="104.17" y2="80.01"/>
  <line class="cls-3" x1="20.01" y1="25.87" x2="103.09" y2="25.87"/>
  <rect class="cls-2" x="38.66" y="22.99" width="24.61" height="5.77"/>
  <rect class="cls-5" x="38.58" y="95.21" width="24.7" height="5.77"/>
  <rect class="cls-4" x="59.35" y="59.11" width="24.7" height="5.77"/>
</svg>