<?xml version="1.0" encoding="UTF-8"?>
<svg id="Layer_1" data-name="Layer 1" xmlns="http://www.w3.org/2000/svg" xmlns:xlink="http://www.w3.org/1999/xlink" viewBox="0 0 124 124">
  <defs>
    <style>
      .cls-1 {
        fill: #ff46ff;
        stroke: #ff46ff;
      }

      .cls-1, .cls-2, .cls-3, .cls-4, .cls-5 {
        stroke-miterlimit: 10;
        stroke-width: 2.22px;
      }

      .cls-2 {
        fill: #00d3ff;
        stroke: #00d3ff;
      }

      .cls-6 {
        stroke-width: 0px;
      }

      .cls-6, .cls-3 {
        fill: #333;
      }

      .cls-3 {
        filter: url(#drop-shadow-2);
      }

      .cls-3, .cls-5 {
        stroke: #d7dae0;
      }

      .cls-4 {
        fill: #ff0;
        stroke: #ff0;
      }

      .cls-5 {
        fill: none;
      }
    </style>
    <filter id="drop-shadow-2" filterUnits="userSpaceOnUse">
      <feOffset dx=".25" dy=".74"/>
      <feGaussianBlur result="blur" stdDeviation="1.73"/>
      <feFlood flood-color="#000" flood-opacity=".45"/>
      <feComposite in2="blur" operator="in"/>
      <feComposite in="SourceGraphic"/>
    </filter>
  </defs>
  <circle class="cls-6" cx="62" cy="62" r="62"/>
  <path class="cls-3" d="m29.83,40.02v43.98c0,5.49,4.45,9.93,9.93,9.93h44.47c5.48,0,9.93-4.44,9.93-9.93v-39.95s-.06-4.21-.06-4.21c-.1-5.42-4.51-9.76-9.93-9.76h-44.41s0,.01,0,.01c-5.48,0-9.93,4.45-9.93,9.93Z"/>
  <line class="cls-5" x1="36.47" y1="50.95" x2="87.55" y2="50.95"/>
  <line class="cls-5" x1="36.5" y1="84.01" x2="87.57" y2="84.01"/>
  <line class="cls-5" x1="36.4" y1="61.94" x2="87.48" y2="61.94"/>
  <line class="cls-5" x1="36.57" y1="72.95" x2="87.64" y2="72.95"/>
  <line class="cls-5" x1="36.46" y1="40.03" x2="86.99" y2="40.03"/>
  <rect class="cls-1" x="47.81" y="38.28" width="14.97" height="3.51"/>
  <rect class="cls-4" x="47.76" y="82.2" width="15.02" height="3.51"/>
  <rect class="cls-2" x="60.39" y="60.25" width="15.02" height="3.51"/>
</svg>